<?xml version="1.0" encoding="utf-8"?>
<!-- Generator: Adobe Illustrator 26.3.1, SVG Export Plug-In . SVG Version: 6.00 Build 0)  -->
<svg version="1.1" id="Layer_1" xmlns="http://www.w3.org/2000/svg" xmlns:xlink="http://www.w3.org/1999/xlink" x="0px" y="0px"
	 viewBox="0 0 300 300" enable-background="new 0 0 300 300" xml:space="preserve">
<path fill="#FFB830" d="M34.98,86.93H24.82C11.11,86.93,0,75.81,0,62.1l0-37.28C0,11.11,11.11,0,24.82,0h10.16
	C48.69,0,59.8,11.11,59.8,24.82V62.1C59.8,75.81,48.69,86.93,34.98,86.93z"/>
<path fill="#FFB830" d="M115.05,86.93h-10.16c-13.71,0-24.82-11.11-24.82-24.82V24.82C80.07,11.11,91.18,0,104.89,0h10.16
	c13.71,0,24.82,11.11,24.82,24.82V62.1C139.87,75.81,128.76,86.93,115.05,86.93z"/>
<path fill="#FFB830" d="M195.11,86.93h-10.16c-13.71,0-24.82-11.11-24.82-24.82V24.82C160.13,11.11,171.24,0,184.95,0h10.16
	c13.71,0,24.82,11.11,24.82,24.82V62.1C219.93,75.81,208.82,86.93,195.11,86.93z"/>
<path fill="#FFB830" d="M275.18,86.93h-10.16c-13.71,0-24.82-11.11-24.82-24.82V24.82C240.2,11.11,251.31,0,265.02,0h10.16
	C288.89,0,300,11.11,300,24.82V62.1C300,75.81,288.89,86.93,275.18,86.93z"/>
<path fill="#FFB830" d="M34.98,193.46H24.82C11.11,193.46,0,182.35,0,168.64l0-37.28c0-13.71,11.11-24.82,24.82-24.82h10.16
	c13.71,0,24.82,11.11,24.82,24.82v37.28C59.8,182.35,48.69,193.46,34.98,193.46z"/>
<path fill="#FFB830" d="M115.05,193.46h-10.16c-13.71,0-24.82-11.11-24.82-24.82v-37.28c0-13.71,11.11-24.82,24.82-24.82h10.16
	c13.71,0,24.82,11.11,24.82,24.82v37.28C139.87,182.35,128.76,193.46,115.05,193.46z"/>
<path fill="#FFB830" d="M195.11,193.46h-10.16c-13.71,0-24.82-11.11-24.82-24.82v-37.28c0-13.71,11.11-24.82,24.82-24.82h10.16
	c13.71,0,24.82,11.11,24.82,24.82v37.28C219.93,182.35,208.82,193.46,195.11,193.46z"/>
<path fill="#FFB830" d="M275.18,193.46h-10.16c-13.71,0-24.82-11.11-24.82-24.82v-37.28c0-13.71,11.11-24.82,24.82-24.82h10.16
	c13.71,0,24.82,11.11,24.82,24.82v37.28C300,182.35,288.89,193.46,275.18,193.46z"/>
<path fill="#FFB830" d="M34.98,300H24.82C11.11,300,0,288.89,0,275.18l0-37.28c0-13.71,11.11-24.82,24.82-24.82h10.16
	c13.71,0,24.82,11.11,24.82,24.82v37.28C59.8,288.89,48.69,300,34.98,300z"/>
<path fill="#FFB830" d="M115.05,300h-10.16c-13.71,0-24.82-11.11-24.82-24.82V237.9c0-13.71,11.11-24.82,24.82-24.82h10.16
	c13.71,0,24.82,11.11,24.82,24.82v37.28C139.87,288.89,128.76,300,115.05,300z"/>
<path fill="#FFB830" d="M195.11,300h-10.16c-13.71,0-24.82-11.11-24.82-24.82V237.9c0-13.71,11.11-24.82,24.82-24.82h10.16
	c13.71,0,24.82,11.11,24.82,24.82v37.28C219.93,288.89,208.82,300,195.11,300z"/>
<g>
	<path fill="#FFB830" d="M275.18,218.07c10.93,0,19.82,8.89,19.82,19.82v37.28c0,10.93-8.89,19.82-19.82,19.82h-10.16
		c-10.93,0-19.82-8.89-19.82-19.82V237.9c0-10.93,8.89-19.82,19.82-19.82H275.18 M275.18,213.07h-10.16
		c-13.71,0-24.82,11.11-24.82,24.82v37.28c0,13.71,11.11,24.82,24.82,24.82h10.16c13.71,0,24.82-11.11,24.82-24.82V237.9
		C300,224.19,288.89,213.07,275.18,213.07L275.18,213.07z"/>
</g>
</svg>
