<?xml version="1.0" encoding="utf-8"?>
<!-- Generator: Adobe Illustrator 23.0.5, SVG Export Plug-In . SVG Version: 6.00 Build 0)  -->
<svg version="1.1" id="Layer_1" xmlns="http://www.w3.org/2000/svg" xmlns:xlink="http://www.w3.org/1999/xlink" x="0px" y="0px"
	 viewBox="0 0 24 24" style="enable-background:new 0 0 24 24;" xml:space="preserve">
<style type="text/css">
	.st0{fill-rule:evenodd;clip-rule:evenodd;fill:#3DB2FF;}
</style>
<path class="st0" d="M22,0H2v24h14l6-6V0z M15,23H3V1h18v16h-6V23z M16,18h4.6L16,22.6V18z M13,19H5v1h8V19z M13,16H5v1h8V16z
	 M19,14v-1H5v1H19z M19,10h-4v1h4V10z M13,11H5l0-0.8c0-0.7,0-1.6,1.3-1.9C7.8,8,7.5,7.9,7.5,7.7C6.4,5.7,6.8,4.6,7.1,4
	C7.5,3.4,8.2,3,9,3c0.8,0,1.5,0.4,1.9,1c0.5,0.9,0.4,2.2-0.4,3.7c-0.1,0.2-0.2,0.3,1.1,0.6C13,8.6,13,9.5,13,10.2
	C13,10.2,13,11,13,11z M6,10h6c0-0.5-0.1-0.6-0.5-0.7c-0.9-0.2-1.6-0.4-1.9-1C9.4,8,9.4,7.6,9.6,7.3c0.6-1.2,0.8-2.1,0.4-2.7
	C9.8,4.1,9.3,4,9,4C8.5,4,8.1,4.2,7.9,4.5C7.6,5.1,7.7,6.1,8.4,7.3c0.2,0.4,0.2,0.7,0.1,1c-0.3,0.6-1,0.8-1.8,1C6.1,9.4,6,9.5,6,10z
	 M19,8V7h-4v1H19z M19,4h-4v1h4V4z"/>
</svg>
