<?xml version="1.0" encoding="utf-8"?>
<!-- Generator: Adobe Illustrator 26.3.1, SVG Export Plug-In . SVG Version: 6.00 Build 0)  -->
<svg version="1.1" id="Layer_1" xmlns="http://www.w3.org/2000/svg" xmlns:xlink="http://www.w3.org/1999/xlink" x="0px" y="0px"
	 viewBox="0 0 300 300" enable-background="new 0 0 300 300" xml:space="preserve">
<g>
	<path fill="#FFB830" d="M90.97,253.6c2.77-8.9,12.99-12.66,20.03-18.77c2.56-2.22,4.78-4.86,7.63-6.68
		c3.16-2.02,6.88-2.9,10.54-3.72c11.94-2.68,23.97-4.97,36.06-6.89c2.51-0.4,5.3-0.72,7.41,0.69c0.88,0.59,1.56,1.44,2.26,2.24
		c9.08,10.21,23.89,12.29,36.97,16.26c5.28,1.6,10.69,3.77,14.23,8.01c3.07,3.67,4.39,8.46,5.36,13.15
		c0.38,1.82,0.71,3.73,0.22,5.52c-1,3.64-4.98,5.58-6.94,8.81c-3.26,5.35-0.24,12.61-2.7,18.37c-2.59,6.07-10.08,8.16-16.64,8.81
		c-6.3,0.63-12.65,0.62-18.98,0.61c-3.44,0-6.91-0.01-10.26-0.81c-3.36-0.8-6.48-2.38-9.78-3.4c-6.77-2.1-14.45-4.17-21.09-1.71
		c-18.59,6.91-36.76,10.5-51.71-1.96c-0.82-0.69-2.18-0.15-3.12-0.66c-1.17-0.64-1.9-1.85-2.55-3.02c-2.5-4.56-4.5-9.39-5.95-14.38
		c-0.34-1.16-0.65-2.38-0.47-3.58c0.35-2.34,2.39-3.97,3.98-5.72C88.24,261.68,90.83,257.74,90.97,253.6"/>
</g>
<g>
	<path fill="#FFB830" d="M125.12,225.92c8.42-4.04,17.41-8.21,27.28-8.19c4.58,0.01,9.44,0.9,13.58-0.64
		c3.2-1.19,5.44-3.83,5.62-6.61c0.09-1.37,7.74-2.5,7.74-3.87c0-4.63-3.19-9.18,2.64-9.76c1.3-0.13,2.85,0.25,3.89-0.37
		c1.85-1.1,3.35-6.58,3.41-9.9c0.02-1.19-1.94-1.97-1.98-3.17c-0.02-0.79,0.45-1.54,0.88-2.25c2.41-4.02,3.8-8.42,4.05-12.87
		c0.11-1.92-0.07-4.01-1.62-5.49c-1.78-1.69-4.82-2.11-7.58-2.41c-7.75-0.85-15.57-1.7-23.38-1.26c-7.81,0.44-15.7,2.27-21.68,6.23
		c-1.86,1.23-3.51,2.65-5.46,3.78c-2.98,1.72-6.52,2.71-10.01,3.67c-3.99,1.1-8.01,2.21-12.2,2.67c-2.4,0.26-4.93,0.33-7.06,1.24
		c-1.58,0.68-2.8,1.78-3.98,2.85c-6.51,5.9-13.4,12.57-13.24,20.39c0.02,0.92,0.14,1.85,0.64,2.69c0.63,1.07,1.8,1.86,2.89,2.67
		c4.41,3.27,7.98,7.23,10.44,11.59c1.51,2.67,2.9,5.74,6.26,6.99c1.75,0.65,3.76,0.67,5.7,0.68
		C116.43,224.6,120.65,225.9,125.12,225.92"/>
</g>
<g>
	<path fill="#FFB830" d="M139.73,158.79c-2.77-0.39-2.62-4.39-3.73-6.96c-1.17-2.69-4.14-4-6.71-5.44
		c-5.98-3.34-10.93-8.71-13.12-15.19c-2.19-6.48-1.4-14.06,2.65-19.58c0.59-0.8,1.25-1.57,2.12-2.05c1.02-0.57,2.23-0.69,3.4-0.79
		c7.38-0.63,14.93-1.08,21.81-3.82c3.56-1.42,6.89-3.43,10.58-4.44c7.14-1.96,14.82,0.03,21.51,3.2c6.7,3.17,12.81,7.48,19.56,10.53
		c6.81,3.08,14.44,5.01,19.8,10.21c1.18,1.15,2.26,2.49,2.69,4.09c0.59,2.18-0.1,4.52-1.13,6.54c-2.84,5.56-8.14,9.62-10.74,15.3
		c-1.3,2.84-1.96,6.13-4.26,8.25c-2.52,2.32-6.27,2.55-9.7,2.65c-4.74,0.14-9.5,0.28-14.23-0.15c-5.49-0.49-10.89-1.74-16.36-2.43
		c-7.94-1-16.03-0.81-23.92,0.55"/>
</g>
<g>
	<path fill="#FFB830" d="M121.54,95.65c-3.67,1.6-4.88-1.41-7.7-4.24s-4.32-6.71-5.47-10.54s-2.06-7.79-3.99-11.29
		c-1.76-3.19-4.46-6.5-3.48-10.01c1.11-3.99,6.04-5.18,9.51-7.45c2.41-1.57,4.29-3.88,6.79-5.31c3.2-1.83,7.05-2.01,10.73-2.14
		c2.68-0.1,5.36-0.2,8.04-0.3c1.21-0.04,2.51-0.06,3.51,0.61c0.47,0.32,0.86,0.78,1.41,0.93c1.02,0.29,1.95-0.61,2.91-1.06
		c1.72-0.82,3.87-0.18,5.3,1.09c1.43,1.27,2.27,3.06,3.01,4.82c2.11,5.07,3.6,10.39,4.42,15.82c0.26,1.75,0.56,3.68,1.93,4.79
		c1.23,0.99,2.95,1.01,4.45,1.5c2.83,0.91,4.86,3.52,5.83,6.33c0.97,2.81,1.06,5.84,1.13,8.81c0.06,2.51,0.06,5.23-1.44,7.25
		c-0.84,1.13-2.08,1.91-3.29,2.63c-2.29,1.36-4.62,2.64-6.99,3.84c-3.55,1.79-7.91,3.37-11.32,1.33c-0.57-0.34-1.08-0.77-1.7-1
		c-2.15-0.82-4.33,0.98-5.99,2.59c-1.95,1.89-4.03,3.75-6.57,4.69c-2.54,0.94-5.67,0.77-7.65-1.09c-2.02-1.89-2.3-5.36-0.6-7.54
		c0.41-0.53,0.93-1.01,1.12-1.65C125.97,97.17,123.5,95.87,121.54,95.65"/>
</g>
<g>
	<path fill="#FFB830" d="M121.84,33.46c1.43,3.46,4.93,6.32,6.97,9.46c0.47,0.72,1,1.47,1.8,1.78c1.04,0.4,2.18-0.07,3.23-0.43
		c4.55-1.58,9.72-1.3,14.07,0.77c1.64,0.78,3.23,1.82,5.04,2.02c2.28,0.25,4.54-0.93,6.08-2.63c1.54-1.7,2.46-3.86,3.21-6.02
		c0.29-0.84,0.56-1.71,0.53-2.6c-0.05-1.23-0.68-2.35-1.3-3.42c-2.32-4.03-4.79-8.23-8.74-10.69c-2.36-1.47-5.16-2.26-7.26-4.09
		c-1.35-1.17-2.32-2.71-3.59-3.96s-3.02-2.25-4.77-1.91c-1.29,0.25-2.32,1.17-3.35,1.98c-4.68,3.65-10.72,5.51-16.65,5.14
		c-2.1-0.13-4.61-0.37-5.89,1.3C112.46,25.9,116.51,30.97,121.84,33.46"/>
</g>
</svg>
