<?xml version="1.0" encoding="utf-8"?>
<!-- Generator: Adobe Illustrator 23.0.5, SVG Export Plug-In . SVG Version: 6.00 Build 0)  -->
<svg version="1.1" id="Layer_1" xmlns="http://www.w3.org/2000/svg" xmlns:xlink="http://www.w3.org/1999/xlink" x="0px" y="0px"
	 viewBox="0 0 614 377" style="enable-background:new 0 0 614 377;" xml:space="preserve">
<style type="text/css">
	.st0{fill:#FF2442;}
	.st1{fill:none;stroke:#FFB830;stroke-width:2;}
	.st2{fill:none;stroke:#3DB2FF;stroke-dasharray:10,10;}
	.st3{fill:#FF2442;stroke:#FF2442;stroke-width:5;}
	.st4{fill:none;stroke:#3DB2FF;}
</style>
<circle class="st0" cx="1.2" cy="208.2" r="1.2"/>
<circle class="st0" cx="1.2" cy="212.6" r="1.2"/>
<circle class="st0" cx="1.2" cy="217" r="1.2"/>
<circle class="st0" cx="1.2" cy="221.4" r="1.2"/>
<circle class="st0" cx="1.2" cy="225.8" r="1.2"/>
<circle class="st0" cx="1.2" cy="230.2" r="1.2"/>
<circle class="st0" cx="1.2" cy="234.6" r="1.2"/>
<circle class="st0" cx="1.2" cy="239" r="1.2"/>
<circle class="st0" cx="1.2" cy="243.3" r="1.2"/>
<circle class="st0" cx="5.2" cy="208.2" r="1.2"/>
<circle class="st0" cx="5.2" cy="212.6" r="1.2"/>
<circle class="st0" cx="5.2" cy="217" r="1.2"/>
<circle class="st0" cx="5.2" cy="221.4" r="1.2"/>
<circle class="st0" cx="5.2" cy="225.8" r="1.2"/>
<circle class="st0" cx="5.2" cy="230.2" r="1.2"/>
<circle class="st0" cx="5.2" cy="234.6" r="1.2"/>
<circle class="st0" cx="5.2" cy="239" r="1.2"/>
<circle class="st0" cx="5.2" cy="243.3" r="1.2"/>
<circle class="st0" cx="9.3" cy="208.2" r="1.2"/>
<circle class="st0" cx="9.3" cy="212.6" r="1.2"/>
<circle class="st0" cx="9.3" cy="217" r="1.2"/>
<circle class="st0" cx="9.3" cy="221.4" r="1.2"/>
<circle class="st0" cx="9.3" cy="225.8" r="1.2"/>
<circle class="st0" cx="9.3" cy="230.2" r="1.2"/>
<circle class="st0" cx="9.3" cy="234.6" r="1.2"/>
<circle class="st0" cx="9.3" cy="239" r="1.2"/>
<circle class="st0" cx="9.3" cy="243.3" r="1.2"/>
<circle class="st0" cx="13.4" cy="208.2" r="1.2"/>
<circle class="st0" cx="13.4" cy="212.6" r="1.2"/>
<circle class="st0" cx="13.4" cy="217" r="1.2"/>
<circle class="st0" cx="13.4" cy="221.4" r="1.2"/>
<circle class="st0" cx="13.4" cy="225.8" r="1.2"/>
<circle class="st0" cx="13.4" cy="230.2" r="1.2"/>
<circle class="st0" cx="13.4" cy="234.6" r="1.2"/>
<circle class="st0" cx="13.4" cy="239" r="1.2"/>
<circle class="st0" cx="13.4" cy="243.3" r="1.2"/>
<circle class="st0" cx="17.4" cy="208.2" r="1.2"/>
<circle class="st0" cx="17.4" cy="212.6" r="1.2"/>
<circle class="st0" cx="17.4" cy="217" r="1.2"/>
<circle class="st0" cx="17.4" cy="221.4" r="1.2"/>
<circle class="st0" cx="17.4" cy="225.8" r="1.2"/>
<circle class="st0" cx="17.4" cy="230.2" r="1.2"/>
<circle class="st0" cx="17.4" cy="234.6" r="1.2"/>
<circle class="st0" cx="17.4" cy="239" r="1.2"/>
<circle class="st0" cx="17.4" cy="243.3" r="1.2"/>
<circle class="st0" cx="21.5" cy="208.2" r="1.2"/>
<circle class="st0" cx="21.5" cy="212.6" r="1.2"/>
<circle class="st0" cx="21.5" cy="217" r="1.2"/>
<circle class="st0" cx="21.5" cy="221.4" r="1.2"/>
<circle class="st0" cx="21.5" cy="225.8" r="1.2"/>
<circle class="st0" cx="21.5" cy="230.2" r="1.2"/>
<circle class="st0" cx="21.5" cy="234.6" r="1.2"/>
<circle class="st0" cx="21.5" cy="239" r="1.2"/>
<circle class="st0" cx="21.5" cy="243.3" r="1.2"/>
<circle class="st0" cx="25.5" cy="208.2" r="1.2"/>
<circle class="st0" cx="25.5" cy="212.6" r="1.2"/>
<circle class="st0" cx="25.5" cy="217" r="1.2"/>
<circle class="st0" cx="25.5" cy="221.4" r="1.2"/>
<circle class="st0" cx="25.5" cy="225.8" r="1.2"/>
<circle class="st0" cx="25.5" cy="230.2" r="1.2"/>
<circle class="st0" cx="25.5" cy="234.6" r="1.2"/>
<circle class="st0" cx="25.5" cy="239" r="1.2"/>
<circle class="st0" cx="25.5" cy="243.3" r="1.2"/>
<circle class="st0" cx="29.6" cy="208.2" r="1.2"/>
<circle class="st0" cx="29.6" cy="212.6" r="1.2"/>
<circle class="st0" cx="29.6" cy="217" r="1.2"/>
<circle class="st0" cx="29.6" cy="221.4" r="1.2"/>
<circle class="st0" cx="29.6" cy="225.8" r="1.2"/>
<circle class="st0" cx="29.6" cy="230.2" r="1.2"/>
<circle class="st0" cx="29.6" cy="234.6" r="1.2"/>
<circle class="st0" cx="29.6" cy="239" r="1.2"/>
<circle class="st0" cx="29.6" cy="243.3" r="1.2"/>
<circle class="st0" cx="33.6" cy="208.2" r="1.2"/>
<circle class="st0" cx="33.6" cy="212.6" r="1.2"/>
<circle class="st0" cx="33.6" cy="217" r="1.2"/>
<circle class="st0" cx="33.6" cy="221.4" r="1.2"/>
<circle class="st0" cx="33.6" cy="225.8" r="1.2"/>
<circle class="st0" cx="33.6" cy="230.2" r="1.2"/>
<circle class="st0" cx="33.6" cy="234.6" r="1.2"/>
<circle class="st0" cx="33.6" cy="239" r="1.2"/>
<circle class="st0" cx="33.6" cy="243.3" r="1.2"/>
<circle class="st0" cx="37.7" cy="208.2" r="1.2"/>
<circle class="st0" cx="37.7" cy="212.6" r="1.2"/>
<circle class="st0" cx="37.7" cy="217" r="1.2"/>
<circle class="st0" cx="37.7" cy="221.4" r="1.2"/>
<circle class="st0" cx="37.7" cy="225.8" r="1.2"/>
<circle class="st0" cx="37.7" cy="230.2" r="1.2"/>
<circle class="st0" cx="37.7" cy="234.6" r="1.2"/>
<circle class="st0" cx="37.7" cy="239" r="1.2"/>
<circle class="st0" cx="37.7" cy="243.3" r="1.2"/>
<circle class="st0" cx="41.8" cy="208.2" r="1.2"/>
<circle class="st0" cx="41.8" cy="212.6" r="1.2"/>
<circle class="st0" cx="41.8" cy="217" r="1.2"/>
<circle class="st0" cx="41.8" cy="221.4" r="1.2"/>
<circle class="st0" cx="41.8" cy="225.8" r="1.2"/>
<circle class="st0" cx="41.8" cy="230.2" r="1.2"/>
<circle class="st0" cx="41.8" cy="234.6" r="1.2"/>
<circle class="st0" cx="41.8" cy="239" r="1.2"/>
<circle class="st0" cx="41.8" cy="243.3" r="1.2"/>
<circle class="st0" cx="45.8" cy="208.2" r="1.2"/>
<circle class="st0" cx="50.2" cy="208.2" r="1.2"/>
<circle class="st0" cx="54.6" cy="208.2" r="1.2"/>
<circle class="st0" cx="58.9" cy="208.2" r="1.2"/>
<circle class="st0" cx="63.3" cy="208.2" r="1.2"/>
<circle class="st0" cx="67.7" cy="208.2" r="1.2"/>
<circle class="st0" cx="72" cy="208.2" r="1.2"/>
<circle class="st0" cx="76.4" cy="208.2" r="1.2"/>
<circle class="st0" cx="80.8" cy="208.2" r="1.2"/>
<circle class="st0" cx="85.1" cy="208.2" r="1.2"/>
<circle class="st0" cx="89.5" cy="208.2" r="1.2"/>
<circle class="st0" cx="93.9" cy="208.2" r="1.2"/>
<circle class="st0" cx="98.2" cy="208.2" r="1.2"/>
<circle class="st0" cx="102.6" cy="208.2" r="1.2"/>
<circle class="st0" cx="107" cy="208.2" r="1.2"/>
<circle class="st0" cx="111.3" cy="208.2" r="1.2"/>
<circle class="st0" cx="115.7" cy="208.2" r="1.2"/>
<circle class="st0" cx="120.1" cy="208.2" r="1.2"/>
<circle class="st0" cx="124.4" cy="208.2" r="1.2"/>
<circle class="st0" cx="128.8" cy="208.2" r="1.2"/>
<circle class="st0" cx="133.2" cy="208.2" r="1.2"/>
<circle class="st0" cx="137.5" cy="208.2" r="1.2"/>
<circle class="st0" cx="141.9" cy="208.2" r="1.2"/>
<circle class="st0" cx="146.3" cy="208.2" r="1.2"/>
<circle class="st0" cx="150.6" cy="208.2" r="1.2"/>
<circle class="st0" cx="155" cy="208.2" r="1.2"/>
<circle class="st0" cx="159.4" cy="208.2" r="1.2"/>
<circle class="st0" cx="163.7" cy="208.2" r="1.2"/>
<circle class="st0" cx="168.1" cy="208.2" r="1.2"/>
<circle class="st0" cx="172.5" cy="208.2" r="1.2"/>
<circle class="st0" cx="176.8" cy="208.2" r="1.2"/>
<circle class="st0" cx="181.2" cy="208.2" r="1.2"/>
<circle class="st0" cx="185.6" cy="208.2" r="1.2"/>
<circle class="st0" cx="189.9" cy="208.2" r="1.2"/>
<circle class="st0" cx="194.3" cy="208.2" r="1.2"/>
<circle class="st0" cx="198.7" cy="208.2" r="1.2"/>
<circle class="st0" cx="203" cy="208.2" r="1.2"/>
<circle class="st0" cx="207.4" cy="208.2" r="1.2"/>
<circle class="st0" cx="211.8" cy="208.2" r="1.2"/>
<circle class="st0" cx="216.1" cy="208.2" r="1.2"/>
<circle class="st0" cx="220.5" cy="208.2" r="1.2"/>
<circle class="st0" cx="224.9" cy="208.2" r="1.2"/>
<circle class="st0" cx="229.2" cy="208.2" r="1.2"/>
<circle class="st0" cx="233.6" cy="208.2" r="1.2"/>
<circle class="st0" cx="238" cy="208.2" r="1.2"/>
<circle class="st0" cx="242.3" cy="208.2" r="1.2"/>
<circle class="st0" cx="246.7" cy="208.2" r="1.2"/>
<circle class="st0" cx="251.1" cy="208.2" r="1.2"/>
<ellipse transform="matrix(0.1602 -0.9871 0.9871 0.1602 9.0197 426.9674)" class="st0" cx="255.4" cy="208.2" rx="1.2" ry="1.2"/>
<circle class="st0" cx="259.8" cy="208.2" r="1.2"/>
<circle class="st0" cx="264.2" cy="208.2" r="1.2"/>
<circle class="st0" cx="268.5" cy="208.2" r="1.2"/>
<circle class="st0" cx="45.8" cy="212.6" r="1.2"/>
<circle class="st0" cx="50.2" cy="212.6" r="1.2"/>
<circle class="st0" cx="54.6" cy="212.6" r="1.2"/>
<circle class="st0" cx="58.9" cy="212.6" r="1.2"/>
<circle class="st0" cx="63.3" cy="212.6" r="1.2"/>
<circle class="st0" cx="67.7" cy="212.6" r="1.2"/>
<circle class="st0" cx="72" cy="212.6" r="1.2"/>
<circle class="st0" cx="76.4" cy="212.6" r="1.2"/>
<circle class="st0" cx="80.8" cy="212.6" r="1.2"/>
<circle class="st0" cx="85.1" cy="212.6" r="1.2"/>
<circle class="st0" cx="89.5" cy="212.6" r="1.2"/>
<circle class="st0" cx="93.9" cy="212.6" r="1.2"/>
<circle class="st0" cx="98.2" cy="212.6" r="1.2"/>
<circle class="st0" cx="102.6" cy="212.6" r="1.2"/>
<circle class="st0" cx="107" cy="212.6" r="1.2"/>
<circle class="st0" cx="111.3" cy="212.6" r="1.2"/>
<circle class="st0" cx="115.7" cy="212.6" r="1.2"/>
<circle class="st0" cx="120.1" cy="212.6" r="1.2"/>
<circle class="st0" cx="124.4" cy="212.6" r="1.2"/>
<circle class="st0" cx="128.8" cy="212.6" r="1.2"/>
<circle class="st0" cx="133.2" cy="212.6" r="1.2"/>
<circle class="st0" cx="137.5" cy="212.6" r="1.2"/>
<circle class="st0" cx="141.9" cy="212.6" r="1.2"/>
<circle class="st0" cx="146.3" cy="212.6" r="1.2"/>
<circle class="st0" cx="150.6" cy="212.6" r="1.2"/>
<circle class="st0" cx="155" cy="212.6" r="1.2"/>
<circle class="st0" cx="159.4" cy="212.6" r="1.2"/>
<circle class="st0" cx="163.7" cy="212.6" r="1.2"/>
<circle class="st0" cx="168.1" cy="212.6" r="1.2"/>
<circle class="st0" cx="172.5" cy="212.6" r="1.2"/>
<circle class="st0" cx="176.8" cy="212.6" r="1.2"/>
<circle class="st0" cx="181.2" cy="212.6" r="1.2"/>
<circle class="st0" cx="185.6" cy="212.6" r="1.2"/>
<circle class="st0" cx="189.9" cy="212.6" r="1.2"/>
<circle class="st0" cx="194.3" cy="212.6" r="1.2"/>
<circle class="st0" cx="198.7" cy="212.6" r="1.2"/>
<circle class="st0" cx="203" cy="212.6" r="1.2"/>
<circle class="st0" cx="207.4" cy="212.6" r="1.2"/>
<circle class="st0" cx="211.8" cy="212.6" r="1.2"/>
<circle class="st0" cx="216.1" cy="212.6" r="1.2"/>
<circle class="st0" cx="220.5" cy="212.6" r="1.2"/>
<circle class="st0" cx="224.9" cy="212.6" r="1.2"/>
<circle class="st0" cx="229.2" cy="212.6" r="1.2"/>
<circle class="st0" cx="233.6" cy="212.6" r="1.2"/>
<circle class="st0" cx="238" cy="212.6" r="1.2"/>
<circle class="st0" cx="242.3" cy="212.6" r="1.2"/>
<circle class="st0" cx="246.7" cy="212.6" r="1.2"/>
<circle class="st0" cx="251.1" cy="212.6" r="1.2"/>
<ellipse transform="matrix(0.1602 -0.9871 0.9871 0.1602 4.6805 430.6592)" class="st0" cx="255.4" cy="212.6" rx="1.2" ry="1.2"/>
<circle class="st0" cx="259.8" cy="212.6" r="1.2"/>
<circle class="st0" cx="264.2" cy="212.6" r="1.2"/>
<circle class="st0" cx="268.5" cy="212.6" r="1.2"/>
<circle class="st0" cx="45.8" cy="217" r="1.2"/>
<circle class="st0" cx="50.2" cy="217" r="1.2"/>
<circle class="st0" cx="54.6" cy="217" r="1.2"/>
<circle class="st0" cx="58.9" cy="217" r="1.2"/>
<circle class="st0" cx="63.3" cy="217" r="1.2"/>
<circle class="st0" cx="67.7" cy="217" r="1.2"/>
<circle class="st0" cx="72" cy="217" r="1.2"/>
<circle class="st0" cx="76.4" cy="217" r="1.2"/>
<circle class="st0" cx="80.8" cy="217" r="1.2"/>
<circle class="st0" cx="85.1" cy="217" r="1.2"/>
<circle class="st0" cx="89.5" cy="217" r="1.2"/>
<circle class="st0" cx="93.9" cy="217" r="1.2"/>
<circle class="st0" cx="98.2" cy="217" r="1.2"/>
<circle class="st0" cx="102.6" cy="217" r="1.2"/>
<circle class="st0" cx="107" cy="217" r="1.2"/>
<circle class="st0" cx="111.3" cy="217" r="1.2"/>
<circle class="st0" cx="115.7" cy="217" r="1.2"/>
<circle class="st0" cx="120.1" cy="217" r="1.2"/>
<circle class="st0" cx="124.4" cy="217" r="1.2"/>
<circle class="st0" cx="128.8" cy="217" r="1.2"/>
<circle class="st0" cx="133.2" cy="217" r="1.2"/>
<circle class="st0" cx="137.5" cy="217" r="1.2"/>
<circle class="st0" cx="141.9" cy="217" r="1.2"/>
<circle class="st0" cx="146.3" cy="217" r="1.2"/>
<circle class="st0" cx="150.6" cy="217" r="1.2"/>
<circle class="st0" cx="155" cy="217" r="1.2"/>
<circle class="st0" cx="159.4" cy="217" r="1.2"/>
<circle class="st0" cx="163.7" cy="217" r="1.2"/>
<circle class="st0" cx="168.1" cy="217" r="1.2"/>
<circle class="st0" cx="172.5" cy="217" r="1.2"/>
<circle class="st0" cx="176.8" cy="217" r="1.2"/>
<circle class="st0" cx="181.2" cy="217" r="1.2"/>
<circle class="st0" cx="185.6" cy="217" r="1.2"/>
<circle class="st0" cx="189.9" cy="217" r="1.2"/>
<circle class="st0" cx="194.3" cy="217" r="1.2"/>
<circle class="st0" cx="198.7" cy="217" r="1.2"/>
<circle class="st0" cx="203" cy="217" r="1.2"/>
<circle class="st0" cx="207.4" cy="217" r="1.2"/>
<circle class="st0" cx="211.8" cy="217" r="1.2"/>
<circle class="st0" cx="216.1" cy="217" r="1.2"/>
<circle class="st0" cx="220.5" cy="217" r="1.2"/>
<circle class="st0" cx="224.9" cy="217" r="1.2"/>
<circle class="st0" cx="229.2" cy="217" r="1.2"/>
<circle class="st0" cx="233.6" cy="217" r="1.2"/>
<circle class="st0" cx="238" cy="217" r="1.2"/>
<circle class="st0" cx="242.3" cy="217" r="1.2"/>
<circle class="st0" cx="246.7" cy="217" r="1.2"/>
<circle class="st0" cx="251.1" cy="217" r="1.2"/>
<ellipse transform="matrix(0.1602 -0.9871 0.9871 0.1602 0.3412 434.3511)" class="st0" cx="255.4" cy="217" rx="1.2" ry="1.2"/>
<circle class="st0" cx="259.8" cy="217" r="1.2"/>
<circle class="st0" cx="264.2" cy="217" r="1.2"/>
<circle class="st0" cx="268.5" cy="217" r="1.2"/>
<circle class="st0" cx="45.8" cy="221.4" r="1.2"/>
<circle class="st0" cx="50.2" cy="221.4" r="1.2"/>
<circle class="st0" cx="54.6" cy="221.4" r="1.2"/>
<circle class="st0" cx="58.9" cy="221.4" r="1.2"/>
<circle class="st0" cx="63.3" cy="221.4" r="1.2"/>
<circle class="st0" cx="67.7" cy="221.4" r="1.2"/>
<circle class="st0" cx="72" cy="221.4" r="1.2"/>
<circle class="st0" cx="76.4" cy="221.4" r="1.2"/>
<circle class="st0" cx="80.8" cy="221.4" r="1.2"/>
<circle class="st0" cx="85.1" cy="221.4" r="1.2"/>
<circle class="st0" cx="89.5" cy="221.4" r="1.2"/>
<circle class="st0" cx="93.9" cy="221.4" r="1.2"/>
<circle class="st0" cx="98.2" cy="221.4" r="1.2"/>
<circle class="st0" cx="102.6" cy="221.4" r="1.2"/>
<circle class="st0" cx="107" cy="221.4" r="1.2"/>
<circle class="st0" cx="111.3" cy="221.4" r="1.2"/>
<circle class="st0" cx="115.7" cy="221.4" r="1.2"/>
<circle class="st0" cx="120.1" cy="221.4" r="1.2"/>
<circle class="st0" cx="124.4" cy="221.4" r="1.2"/>
<circle class="st0" cx="128.8" cy="221.4" r="1.2"/>
<circle class="st0" cx="133.2" cy="221.4" r="1.2"/>
<circle class="st0" cx="137.5" cy="221.4" r="1.2"/>
<circle class="st0" cx="141.9" cy="221.4" r="1.2"/>
<circle class="st0" cx="146.3" cy="221.4" r="1.2"/>
<circle class="st0" cx="150.6" cy="221.4" r="1.2"/>
<circle class="st0" cx="155" cy="221.4" r="1.2"/>
<circle class="st0" cx="159.4" cy="221.4" r="1.2"/>
<circle class="st0" cx="163.7" cy="221.4" r="1.2"/>
<circle class="st0" cx="168.1" cy="221.4" r="1.2"/>
<circle class="st0" cx="172.5" cy="221.4" r="1.2"/>
<circle class="st0" cx="176.8" cy="221.4" r="1.2"/>
<circle class="st0" cx="181.2" cy="221.4" r="1.2"/>
<circle class="st0" cx="185.6" cy="221.4" r="1.2"/>
<circle class="st0" cx="189.9" cy="221.4" r="1.2"/>
<circle class="st0" cx="194.3" cy="221.4" r="1.2"/>
<circle class="st0" cx="198.7" cy="221.4" r="1.2"/>
<circle class="st0" cx="203" cy="221.4" r="1.2"/>
<circle class="st0" cx="207.4" cy="221.4" r="1.2"/>
<circle class="st0" cx="211.8" cy="221.4" r="1.2"/>
<circle class="st0" cx="216.1" cy="221.4" r="1.2"/>
<circle class="st0" cx="220.5" cy="221.4" r="1.2"/>
<circle class="st0" cx="224.9" cy="221.4" r="1.2"/>
<circle class="st0" cx="229.2" cy="221.4" r="1.2"/>
<circle class="st0" cx="233.6" cy="221.4" r="1.2"/>
<circle class="st0" cx="238" cy="221.4" r="1.2"/>
<circle class="st0" cx="242.3" cy="221.4" r="1.2"/>
<circle class="st0" cx="246.7" cy="221.4" r="1.2"/>
<circle class="st0" cx="251.1" cy="221.4" r="1.2"/>
<ellipse transform="matrix(0.1602 -0.9871 0.9871 0.1602 -3.997 438.0421)" class="st0" cx="255.4" cy="221.4" rx="1.2" ry="1.2"/>
<circle class="st0" cx="259.8" cy="221.4" r="1.2"/>
<circle class="st0" cx="264.2" cy="221.4" r="1.2"/>
<circle class="st0" cx="268.5" cy="221.4" r="1.2"/>
<circle class="st0" cx="45.8" cy="225.8" r="1.2"/>
<circle class="st0" cx="50.2" cy="225.8" r="1.2"/>
<circle class="st0" cx="54.6" cy="225.8" r="1.2"/>
<circle class="st0" cx="58.9" cy="225.8" r="1.2"/>
<circle class="st0" cx="63.3" cy="225.8" r="1.2"/>
<circle class="st0" cx="67.7" cy="225.8" r="1.2"/>
<circle class="st0" cx="72" cy="225.8" r="1.2"/>
<circle class="st0" cx="76.4" cy="225.8" r="1.2"/>
<circle class="st0" cx="80.8" cy="225.8" r="1.2"/>
<circle class="st0" cx="85.1" cy="225.8" r="1.2"/>
<circle class="st0" cx="89.5" cy="225.8" r="1.2"/>
<circle class="st0" cx="93.9" cy="225.8" r="1.2"/>
<circle class="st0" cx="98.2" cy="225.8" r="1.2"/>
<circle class="st0" cx="102.6" cy="225.8" r="1.2"/>
<circle class="st0" cx="107" cy="225.8" r="1.2"/>
<circle class="st0" cx="111.3" cy="225.8" r="1.2"/>
<circle class="st0" cx="115.7" cy="225.8" r="1.2"/>
<circle class="st0" cx="120.1" cy="225.8" r="1.2"/>
<circle class="st0" cx="124.4" cy="225.8" r="1.2"/>
<circle class="st0" cx="128.8" cy="225.8" r="1.2"/>
<circle class="st0" cx="133.2" cy="225.8" r="1.2"/>
<circle class="st0" cx="137.5" cy="225.8" r="1.2"/>
<circle class="st0" cx="141.9" cy="225.8" r="1.2"/>
<circle class="st0" cx="146.3" cy="225.8" r="1.2"/>
<circle class="st0" cx="150.6" cy="225.8" r="1.2"/>
<circle class="st0" cx="155" cy="225.8" r="1.2"/>
<circle class="st0" cx="159.4" cy="225.8" r="1.2"/>
<circle class="st0" cx="163.7" cy="225.8" r="1.2"/>
<circle class="st0" cx="168.1" cy="225.8" r="1.2"/>
<circle class="st0" cx="172.5" cy="225.8" r="1.2"/>
<circle class="st0" cx="176.8" cy="225.8" r="1.2"/>
<circle class="st0" cx="181.2" cy="225.8" r="1.2"/>
<circle class="st0" cx="185.6" cy="225.8" r="1.2"/>
<circle class="st0" cx="189.9" cy="225.8" r="1.2"/>
<circle class="st0" cx="194.3" cy="225.8" r="1.2"/>
<circle class="st0" cx="198.7" cy="225.8" r="1.2"/>
<circle class="st0" cx="203" cy="225.8" r="1.2"/>
<circle class="st0" cx="207.4" cy="225.8" r="1.2"/>
<circle class="st0" cx="211.8" cy="225.8" r="1.2"/>
<circle class="st0" cx="216.1" cy="225.8" r="1.2"/>
<circle class="st0" cx="220.5" cy="225.8" r="1.2"/>
<circle class="st0" cx="224.9" cy="225.8" r="1.2"/>
<circle class="st0" cx="229.2" cy="225.8" r="1.2"/>
<circle class="st0" cx="233.6" cy="225.8" r="1.2"/>
<circle class="st0" cx="238" cy="225.8" r="1.2"/>
<circle class="st0" cx="242.3" cy="225.8" r="1.2"/>
<circle class="st0" cx="246.7" cy="225.8" r="1.2"/>
<circle class="st0" cx="251.1" cy="225.8" r="1.2"/>
<ellipse transform="matrix(0.1602 -0.9871 0.9871 0.1602 -8.3363 441.7339)" class="st0" cx="255.4" cy="225.8" rx="1.2" ry="1.2"/>
<circle class="st0" cx="259.8" cy="225.8" r="1.2"/>
<circle class="st0" cx="264.2" cy="225.8" r="1.2"/>
<circle class="st0" cx="268.5" cy="225.8" r="1.2"/>
<circle class="st0" cx="45.8" cy="230.2" r="1.2"/>
<circle class="st0" cx="50.2" cy="230.2" r="1.2"/>
<circle class="st0" cx="54.6" cy="230.2" r="1.2"/>
<circle class="st0" cx="58.9" cy="230.2" r="1.2"/>
<circle class="st0" cx="63.3" cy="230.2" r="1.2"/>
<circle class="st0" cx="67.7" cy="230.2" r="1.2"/>
<circle class="st0" cx="72" cy="230.2" r="1.2"/>
<circle class="st0" cx="76.4" cy="230.2" r="1.2"/>
<circle class="st0" cx="80.8" cy="230.2" r="1.2"/>
<circle class="st0" cx="85.1" cy="230.2" r="1.2"/>
<circle class="st0" cx="89.5" cy="230.2" r="1.2"/>
<circle class="st0" cx="93.9" cy="230.2" r="1.2"/>
<circle class="st0" cx="98.2" cy="230.2" r="1.2"/>
<circle class="st0" cx="102.6" cy="230.2" r="1.2"/>
<circle class="st0" cx="107" cy="230.2" r="1.2"/>
<circle class="st0" cx="111.3" cy="230.2" r="1.2"/>
<circle class="st0" cx="115.7" cy="230.2" r="1.2"/>
<circle class="st0" cx="120.1" cy="230.2" r="1.2"/>
<circle class="st0" cx="124.4" cy="230.2" r="1.2"/>
<circle class="st0" cx="128.8" cy="230.2" r="1.2"/>
<circle class="st0" cx="133.2" cy="230.2" r="1.2"/>
<circle class="st0" cx="137.5" cy="230.2" r="1.2"/>
<circle class="st0" cx="141.9" cy="230.2" r="1.2"/>
<circle class="st0" cx="146.3" cy="230.2" r="1.2"/>
<circle class="st0" cx="150.6" cy="230.2" r="1.2"/>
<circle class="st0" cx="155" cy="230.2" r="1.2"/>
<circle class="st0" cx="159.4" cy="230.2" r="1.2"/>
<circle class="st0" cx="163.7" cy="230.2" r="1.2"/>
<circle class="st0" cx="168.1" cy="230.2" r="1.2"/>
<circle class="st0" cx="172.5" cy="230.2" r="1.2"/>
<circle class="st0" cx="176.8" cy="230.2" r="1.2"/>
<circle class="st0" cx="181.2" cy="230.2" r="1.2"/>
<circle class="st0" cx="185.6" cy="230.2" r="1.2"/>
<circle class="st0" cx="189.9" cy="230.2" r="1.2"/>
<circle class="st0" cx="194.3" cy="230.2" r="1.2"/>
<circle class="st0" cx="198.7" cy="230.2" r="1.2"/>
<circle class="st0" cx="203" cy="230.2" r="1.2"/>
<circle class="st0" cx="207.4" cy="230.2" r="1.2"/>
<circle class="st0" cx="211.8" cy="230.2" r="1.2"/>
<circle class="st0" cx="216.1" cy="230.2" r="1.2"/>
<circle class="st0" cx="220.5" cy="230.2" r="1.2"/>
<circle class="st0" cx="224.9" cy="230.2" r="1.2"/>
<circle class="st0" cx="229.2" cy="230.2" r="1.2"/>
<circle class="st0" cx="233.6" cy="230.2" r="1.2"/>
<circle class="st0" cx="238" cy="230.2" r="1.2"/>
<circle class="st0" cx="242.3" cy="230.2" r="1.2"/>
<circle class="st0" cx="246.7" cy="230.2" r="1.2"/>
<circle class="st0" cx="251.1" cy="230.2" r="1.2"/>
<ellipse transform="matrix(0.1602 -0.9871 0.9871 0.1602 -12.6755 445.4258)" class="st0" cx="255.4" cy="230.2" rx="1.2" ry="1.2"/>
<circle class="st0" cx="259.8" cy="230.2" r="1.2"/>
<circle class="st0" cx="264.2" cy="230.2" r="1.2"/>
<circle class="st0" cx="268.5" cy="230.2" r="1.2"/>
<circle class="st0" cx="45.8" cy="234.6" r="1.2"/>
<circle class="st0" cx="50.2" cy="234.6" r="1.2"/>
<circle class="st0" cx="54.6" cy="234.6" r="1.2"/>
<circle class="st0" cx="58.9" cy="234.6" r="1.2"/>
<circle class="st0" cx="63.3" cy="234.6" r="1.2"/>
<circle class="st0" cx="67.7" cy="234.6" r="1.2"/>
<circle class="st0" cx="72" cy="234.6" r="1.2"/>
<circle class="st0" cx="76.4" cy="234.6" r="1.2"/>
<circle class="st0" cx="80.8" cy="234.6" r="1.2"/>
<circle class="st0" cx="85.1" cy="234.6" r="1.2"/>
<circle class="st0" cx="89.5" cy="234.6" r="1.2"/>
<circle class="st0" cx="93.9" cy="234.6" r="1.2"/>
<circle class="st0" cx="98.2" cy="234.6" r="1.2"/>
<circle class="st0" cx="102.6" cy="234.6" r="1.2"/>
<circle class="st0" cx="107" cy="234.6" r="1.2"/>
<circle class="st0" cx="111.3" cy="234.6" r="1.2"/>
<circle class="st0" cx="115.7" cy="234.6" r="1.2"/>
<circle class="st0" cx="120.1" cy="234.6" r="1.2"/>
<circle class="st0" cx="124.4" cy="234.6" r="1.2"/>
<circle class="st0" cx="128.8" cy="234.6" r="1.2"/>
<circle class="st0" cx="133.2" cy="234.6" r="1.2"/>
<circle class="st0" cx="137.5" cy="234.6" r="1.2"/>
<circle class="st0" cx="141.9" cy="234.6" r="1.2"/>
<circle class="st0" cx="146.3" cy="234.6" r="1.2"/>
<circle class="st0" cx="150.6" cy="234.6" r="1.2"/>
<circle class="st0" cx="155" cy="234.6" r="1.2"/>
<circle class="st0" cx="159.4" cy="234.6" r="1.2"/>
<circle class="st0" cx="163.7" cy="234.6" r="1.2"/>
<circle class="st0" cx="168.1" cy="234.6" r="1.2"/>
<circle class="st0" cx="172.5" cy="234.6" r="1.2"/>
<circle class="st0" cx="176.8" cy="234.6" r="1.2"/>
<circle class="st0" cx="181.2" cy="234.6" r="1.2"/>
<circle class="st0" cx="185.6" cy="234.6" r="1.2"/>
<circle class="st0" cx="189.9" cy="234.6" r="1.2"/>
<circle class="st0" cx="194.3" cy="234.6" r="1.2"/>
<circle class="st0" cx="198.7" cy="234.6" r="1.2"/>
<circle class="st0" cx="203" cy="234.6" r="1.2"/>
<circle class="st0" cx="207.4" cy="234.6" r="1.2"/>
<circle class="st0" cx="211.8" cy="234.6" r="1.2"/>
<circle class="st0" cx="216.1" cy="234.6" r="1.2"/>
<circle class="st0" cx="220.5" cy="234.6" r="1.2"/>
<circle class="st0" cx="224.9" cy="234.6" r="1.2"/>
<circle class="st0" cx="229.2" cy="234.6" r="1.2"/>
<circle class="st0" cx="233.6" cy="234.6" r="1.2"/>
<circle class="st0" cx="238" cy="234.6" r="1.2"/>
<circle class="st0" cx="242.3" cy="234.6" r="1.2"/>
<circle class="st0" cx="246.7" cy="234.6" r="1.2"/>
<circle class="st0" cx="251.1" cy="234.6" r="1.2"/>
<ellipse transform="matrix(0.1602 -0.9871 0.9871 0.1602 -17.0147 449.1176)" class="st0" cx="255.4" cy="234.6" rx="1.2" ry="1.2"/>
<circle class="st0" cx="259.8" cy="234.6" r="1.2"/>
<circle class="st0" cx="264.2" cy="234.6" r="1.2"/>
<circle class="st0" cx="268.5" cy="234.6" r="1.2"/>
<circle class="st0" cx="45.8" cy="239" r="1.2"/>
<circle class="st0" cx="50.2" cy="239" r="1.2"/>
<circle class="st0" cx="54.6" cy="239" r="1.2"/>
<circle class="st0" cx="58.9" cy="239" r="1.2"/>
<circle class="st0" cx="63.3" cy="239" r="1.2"/>
<circle class="st0" cx="67.7" cy="239" r="1.2"/>
<circle class="st0" cx="72" cy="239" r="1.2"/>
<circle class="st0" cx="76.4" cy="239" r="1.2"/>
<circle class="st0" cx="80.8" cy="239" r="1.2"/>
<circle class="st0" cx="85.1" cy="239" r="1.2"/>
<circle class="st0" cx="89.5" cy="239" r="1.2"/>
<circle class="st0" cx="93.9" cy="239" r="1.2"/>
<circle class="st0" cx="98.2" cy="239" r="1.2"/>
<circle class="st0" cx="102.6" cy="239" r="1.2"/>
<circle class="st0" cx="107" cy="239" r="1.2"/>
<circle class="st0" cx="111.3" cy="239" r="1.2"/>
<circle class="st0" cx="115.7" cy="239" r="1.2"/>
<circle class="st0" cx="120.1" cy="239" r="1.2"/>
<circle class="st0" cx="124.4" cy="239" r="1.2"/>
<circle class="st0" cx="128.8" cy="239" r="1.2"/>
<circle class="st0" cx="133.2" cy="239" r="1.2"/>
<circle class="st0" cx="137.5" cy="239" r="1.2"/>
<circle class="st0" cx="141.9" cy="239" r="1.2"/>
<circle class="st0" cx="146.3" cy="239" r="1.2"/>
<circle class="st0" cx="150.6" cy="239" r="1.2"/>
<circle class="st0" cx="155" cy="239" r="1.2"/>
<circle class="st0" cx="159.4" cy="239" r="1.2"/>
<circle class="st0" cx="163.7" cy="239" r="1.2"/>
<circle class="st0" cx="168.1" cy="239" r="1.2"/>
<circle class="st0" cx="172.5" cy="239" r="1.2"/>
<circle class="st0" cx="176.8" cy="239" r="1.2"/>
<circle class="st0" cx="181.2" cy="239" r="1.2"/>
<circle class="st0" cx="185.6" cy="239" r="1.2"/>
<circle class="st0" cx="189.9" cy="239" r="1.2"/>
<circle class="st0" cx="194.3" cy="239" r="1.2"/>
<circle class="st0" cx="198.7" cy="239" r="1.2"/>
<circle class="st0" cx="203" cy="239" r="1.2"/>
<circle class="st0" cx="207.4" cy="239" r="1.2"/>
<circle class="st0" cx="211.8" cy="239" r="1.2"/>
<circle class="st0" cx="216.1" cy="239" r="1.2"/>
<circle class="st0" cx="220.5" cy="239" r="1.2"/>
<circle class="st0" cx="224.9" cy="239" r="1.2"/>
<circle class="st0" cx="229.2" cy="239" r="1.2"/>
<circle class="st0" cx="233.6" cy="239" r="1.2"/>
<circle class="st0" cx="238" cy="239" r="1.2"/>
<circle class="st0" cx="242.3" cy="239" r="1.2"/>
<circle class="st0" cx="246.7" cy="239" r="1.2"/>
<circle class="st0" cx="251.1" cy="239" r="1.2"/>
<ellipse transform="matrix(0.1602 -0.9871 0.9871 0.1602 -21.353 452.8086)" class="st0" cx="255.4" cy="239" rx="1.2" ry="1.2"/>
<circle class="st0" cx="259.8" cy="239" r="1.2"/>
<circle class="st0" cx="264.2" cy="239" r="1.2"/>
<circle class="st0" cx="268.5" cy="239" r="1.2"/>
<circle class="st0" cx="45.8" cy="243.3" r="1.2"/>
<circle class="st0" cx="50.2" cy="243.3" r="1.2"/>
<circle class="st0" cx="54.6" cy="243.3" r="1.2"/>
<circle class="st0" cx="58.9" cy="243.3" r="1.2"/>
<circle class="st0" cx="63.3" cy="243.3" r="1.2"/>
<circle class="st0" cx="67.7" cy="243.3" r="1.2"/>
<circle class="st0" cx="72" cy="243.3" r="1.2"/>
<circle class="st0" cx="76.4" cy="243.3" r="1.2"/>
<circle class="st0" cx="80.8" cy="243.3" r="1.2"/>
<circle class="st0" cx="85.1" cy="243.3" r="1.2"/>
<circle class="st0" cx="89.5" cy="243.3" r="1.2"/>
<circle class="st0" cx="93.9" cy="243.3" r="1.2"/>
<circle class="st0" cx="98.2" cy="243.3" r="1.2"/>
<circle class="st0" cx="102.6" cy="243.3" r="1.2"/>
<circle class="st0" cx="107" cy="243.3" r="1.2"/>
<circle class="st0" cx="111.3" cy="243.3" r="1.2"/>
<circle class="st0" cx="115.7" cy="243.3" r="1.2"/>
<circle class="st0" cx="120.1" cy="243.3" r="1.2"/>
<circle class="st0" cx="124.4" cy="243.3" r="1.2"/>
<circle class="st0" cx="128.8" cy="243.3" r="1.2"/>
<circle class="st0" cx="133.2" cy="243.3" r="1.2"/>
<circle class="st0" cx="137.5" cy="243.3" r="1.2"/>
<circle class="st0" cx="141.9" cy="243.3" r="1.2"/>
<circle class="st0" cx="146.3" cy="243.3" r="1.2"/>
<circle class="st0" cx="150.6" cy="243.3" r="1.2"/>
<circle class="st0" cx="155" cy="243.3" r="1.2"/>
<circle class="st0" cx="159.4" cy="243.3" r="1.2"/>
<circle class="st0" cx="163.7" cy="243.3" r="1.2"/>
<circle class="st0" cx="168.1" cy="243.3" r="1.2"/>
<circle class="st0" cx="172.5" cy="243.3" r="1.2"/>
<circle class="st0" cx="176.8" cy="243.3" r="1.2"/>
<circle class="st0" cx="181.2" cy="243.3" r="1.2"/>
<circle class="st0" cx="185.6" cy="243.3" r="1.2"/>
<circle class="st0" cx="189.9" cy="243.3" r="1.2"/>
<circle class="st0" cx="194.3" cy="243.3" r="1.2"/>
<circle class="st0" cx="198.7" cy="243.3" r="1.2"/>
<circle class="st0" cx="203" cy="243.3" r="1.2"/>
<circle class="st0" cx="207.4" cy="243.3" r="1.2"/>
<circle class="st0" cx="211.8" cy="243.3" r="1.2"/>
<circle class="st0" cx="216.1" cy="243.3" r="1.2"/>
<circle class="st0" cx="220.5" cy="243.3" r="1.2"/>
<circle class="st0" cx="224.9" cy="243.3" r="1.2"/>
<circle class="st0" cx="229.2" cy="243.3" r="1.2"/>
<circle class="st0" cx="233.6" cy="243.3" r="1.2"/>
<circle class="st0" cx="238" cy="243.3" r="1.2"/>
<circle class="st0" cx="242.3" cy="243.3" r="1.2"/>
<circle class="st0" cx="246.7" cy="243.3" r="1.2"/>
<circle class="st0" cx="251.1" cy="243.3" r="1.2"/>
<ellipse transform="matrix(0.1602 -0.9871 0.9871 0.1602 -25.6922 456.5004)" class="st0" cx="255.4" cy="243.3" rx="1.2" ry="1.2"/>
<circle class="st0" cx="259.8" cy="243.3" r="1.2"/>
<circle class="st0" cx="264.2" cy="243.3" r="1.2"/>
<circle class="st0" cx="268.5" cy="243.3" r="1.2"/>
<circle class="st1" cx="425.5" cy="188.5" r="187.5"/>
<path class="st2" d="M577.9,240.4c0.5,3.2,0.8,6.4,1,9.7l-0.5,0c0.1,1.6,0.1,3.2,0.1,4.9s0,3.3-0.1,4.9l0.5,0
	c-0.2,3.3-0.5,6.5-1,9.7l-0.5-0.1c-0.5,3.2-1.1,6.4-1.9,9.5l0.5,0.1c-0.8,3.2-1.8,6.3-2.9,9.3l-0.5-0.2c-1.1,3.1-2.4,6-3.8,9
	l0.5,0.2c-1.4,2.9-3,5.8-4.7,8.6l-0.4-0.3c-1.7,2.8-3.5,5.5-5.5,8l0.4,0.3c-2,2.6-4,5.1-6.3,7.5l-0.4-0.3c-2.2,2.4-4.5,4.7-6.9,6.8
	l0.3,0.4c-2.4,2.2-5,4.2-7.6,6.1l-0.3-0.4c-2.6,1.9-5.3,3.7-8.1,5.4l0.3,0.4c-2.8,1.7-5.7,3.2-8.6,4.6l-0.2-0.5
	c-2.9,1.4-5.9,2.6-9,3.7l0.2,0.5c-3.1,1.1-6.2,2-9.4,2.8l-0.1-0.5c-3.1,0.8-6.3,1.4-9.5,1.9l0.1,0.5c-3.2,0.5-6.4,0.8-9.7,0.9l0-0.5
	c-1.6,0.1-3.2,0.1-4.9,0.1s-3.3,0-4.9-0.1l0,0.5c-3.3-0.2-6.5-0.5-9.7-0.9l0.1-0.5c-3.2-0.5-6.4-1.1-9.5-1.9l-0.1,0.5
	c-3.2-0.8-6.3-1.7-9.4-2.8l0.2-0.5c-3.1-1.1-6.1-2.3-9-3.7l-0.2,0.5c-3-1.4-5.8-2.9-8.6-4.6l0.3-0.4c-2.8-1.7-5.5-3.4-8.1-5.4
	l-0.3,0.4c-2.6-1.9-5.2-4-7.6-6.1l0.3-0.4c-2.4-2.2-4.7-4.4-6.9-6.8l-0.4,0.3c-2.2-2.4-4.3-4.9-6.3-7.5l0.4-0.3
	c-1.9-2.6-3.8-5.3-5.5-8l-0.4,0.3c-1.7-2.8-3.2-5.6-4.7-8.6l0.5-0.2c-1.4-2.9-2.7-5.9-3.8-9l-0.5,0.2c-1.1-3-2.1-6.2-2.9-9.3
	l0.5-0.1c-0.8-3.1-1.4-6.3-1.9-9.5l-0.5,0.1c-0.5-3.2-0.8-6.4-1-9.7l0.5,0c-0.1-1.6-0.1-3.2-0.1-4.9s0-3.3,0.1-4.9l-0.5,0
	c0.2-3.3,0.5-6.5,1-9.7l0.5,0.1c0.5-3.2,1.1-6.4,1.9-9.5l-0.5-0.1c0.8-3.2,1.8-6.3,2.9-9.3l0.5,0.2c1.1-3.1,2.4-6,3.8-9l-0.5-0.2
	c1.4-2.9,3-5.8,4.7-8.6l0.4,0.3c1.7-2.8,3.5-5.5,5.5-8l-0.4-0.3c2-2.6,4.1-5.1,6.3-7.5l0.4,0.3c2.2-2.4,4.5-4.7,6.9-6.8l-0.3-0.4
	c2.4-2.2,5-4.2,7.6-6.1l0.3,0.4c2.6-1.9,5.3-3.7,8.1-5.3l-0.3-0.4c2.8-1.7,5.7-3.2,8.6-4.6l0.2,0.5c2.9-1.4,5.9-2.6,9-3.7l-0.2-0.5
	c3.1-1.1,6.2-2,9.4-2.8l0.1,0.5c3.1-0.8,6.3-1.4,9.5-1.9l-0.1-0.5c3.2-0.5,6.4-0.8,9.7-0.9l0,0.5c1.6-0.1,3.2-0.1,4.9-0.1
	s3.3,0,4.9,0.1l0-0.5c3.3,0.2,6.5,0.5,9.7,0.9l-0.1,0.5c3.2,0.5,6.4,1.1,9.5,1.9l0.1-0.5c3.2,0.8,6.3,1.7,9.4,2.8l-0.2,0.5
	c3.1,1.1,6.1,2.3,9,3.7l0.2-0.5c3,1.4,5.8,2.9,8.6,4.6l-0.3,0.4c2.8,1.7,5.5,3.4,8.1,5.3l0.3-0.4c2.6,1.9,5.2,4,7.6,6.1l-0.3,0.4
	c2.4,2.2,4.7,4.4,6.9,6.8l0.4-0.3c2.2,2.4,4.3,4.9,6.3,7.5l-0.4,0.3c1.9,2.6,3.8,5.3,5.5,8l0.4-0.3c1.7,2.8,3.2,5.6,4.7,8.6
	l-0.5,0.2c1.4,2.9,2.7,5.9,3.8,9l0.5-0.2c1.1,3,2.1,6.2,2.9,9.3l-0.5,0.1c0.8,3.1,1.4,6.3,1.9,9.5L577.9,240.4z"/>
<path class="st3" d="M518.5,255c0,21.8-17.9,39.5-40,39.5s-40-17.7-40-39.5s17.9-39.5,40-39.5S518.5,233.2,518.5,255z"/>
<path class="st4" d="M131.3,178.6c-3.9,0-7.3-0.9-10-2.6c-2.7-1.8-4.8-4.2-6.3-7.3c-1.4-3.1-2.1-6.5-2.1-10.4v-55.4
	c0-3.8,0.7-7.3,2.2-10.4c1.5-3.1,3.6-5.5,6.4-7.3s6.1-2.7,9.9-2.7c2.9,0,5.4,0.5,7.7,1.6c2.3,1.1,4.2,2.5,5.8,4.4
	c1.6,1.8,2.9,4,3.7,6.5c0.9,2.4,1.3,5.1,1.3,7.9v12.9h-12.9v-12.9c0-2-0.4-3.6-1.2-4.9c-0.8-1.3-2.2-2-4-2c-1.7,0-2.9,0.7-3.7,2
	c-0.8,1.4-1.2,3-1.2,4.9v55.4c0,1.9,0.4,3.5,1.2,4.9c0.9,1.4,2.1,2,3.6,2c1.9,0,3.3-0.7,4-2c0.8-1.3,1.2-3,1.2-4.9v-12.9h12.9v12.9
	c0,3.8-0.7,7.3-2.2,10.4c-1.5,3.1-3.6,5.5-6.4,7.3C138.3,177.7,135.1,178.6,131.3,178.6z M159.3,177.6V83.5h13.8
	c5.2,0,9.6,1.2,13.1,3.5c3.5,2.3,6.2,5.6,7.9,9.8s2.6,9.2,2.6,14.9c0,5.7-0.9,10.6-2.8,14.8c-1.8,4.1-4.5,7.4-8.1,9.7
	c-3.5,2.3-7.8,3.6-12.9,3.8v37.6H159.3z M173.2,125.9c2.4,0,4.4-0.5,5.8-1.4c1.4-1,2.4-2.5,3-4.6c0.6-2.1,1-4.8,1-8.1
	c0-3.3-0.3-6-1-8.1c-0.6-2.1-1.6-3.6-3.1-4.6c-1.4-1-3.3-1.5-5.7-1.5V125.9z M221,178.6c-3.8,0-7-0.6-9.5-1.9
	c-2.5-1.3-4.5-3.1-6-5.5c-1.5-2.4-2.5-5.3-3.1-8.6c-0.6-3.4-0.9-7.2-0.9-11.4l13.6-1.3c0,2,0.1,4,0.2,6c0.2,1.9,0.4,3.6,0.8,5.1
	c0.4,1.5,1,2.7,1.8,3.6c0.8,0.9,1.8,1.3,3.1,1.3c2,0,3.5-0.9,4.4-2.8c0.9-1.9,1.3-4.2,1.3-6.9c0-2.7-0.7-5.5-2.1-8.4
	s-3.1-5.7-5.1-8.3c-3.3-4.4-6.3-8.6-8.8-12.4c-2.5-3.8-4.4-7.5-5.8-11.2c-1.4-3.7-2-7.5-2-11.5c0-3.2,0.4-6.1,1.2-8.7
	c0.8-2.7,2-5,3.5-7c1.6-2,3.5-3.6,5.7-4.7c2.2-1.1,4.8-1.7,7.6-1.7c3.5,0,6.5,0.6,9,1.8c2.5,1.2,4.5,2.9,6,5.1
	c1.5,2.2,2.6,4.9,3.3,7.9c0.7,3,1.1,6.4,1.1,10.1l-13.6,1.3c0-1.6-0.1-3.2-0.3-4.7c-0.1-1.6-0.4-3.1-0.8-4.4s-0.9-2.4-1.7-3.2
	c-0.7-0.8-1.7-1.2-2.8-1.2c-1.8,0-3,0.8-3.7,2.3c-0.7,1.5-1,3.6-1,6.4c0,3.6,1,7,2.9,10.4s4.5,7.2,7.7,11.6c3.9,5.2,7,10.1,9.5,14.5
	c2.5,4.4,3.7,9.3,3.7,14.6c0,3.4-0.4,6.5-1.1,9.4c-0.7,2.9-1.9,5.4-3.5,7.5c-1.5,2.1-3.5,3.8-6,5C227.3,178,224.4,178.6,221,178.6z
	 M263.2,178.6c-3.8,0-6.9-0.9-9.3-2.7c-2.4-1.8-4.2-4.2-5.3-7.3c-1.1-3.1-1.7-6.5-1.7-10.4v-55.4c0-3.8,0.7-7.2,2.2-10.3
	s3.6-5.5,6.4-7.3c2.8-1.8,6-2.8,9.8-2.8c2.9,0,5.4,0.5,7.7,1.6c2.3,1,4.2,2.5,5.8,4.4c1.6,1.9,2.8,4.1,3.6,6.5
	c0.9,2.4,1.3,5.1,1.3,7.9v14.5H270v-14.5c0-1.9-0.3-3.5-1-4.9c-0.7-1.4-1.9-2-3.6-2c-1.7,0-2.9,0.7-3.6,2.2c-0.7,1.4-1,3-1,4.7v56.6
	c0,1.8,0.4,3.5,1.1,4.9c0.7,1.4,1.9,2,3.5,2c1.7,0,2.9-0.7,3.6-2c0.7-1.4,1-3,1-4.9v-15.7h-5.5v-12.9h19.3v46.8h-8.2l-1.7-5.1
	c-1.2,1.9-2.7,3.4-4.6,4.5C267.5,178.1,265.5,178.6,263.2,178.6z M293.6,149.2V137h18.6v12.2H293.6z M338.6,178.6
	c-3.7,0-6.7-0.7-9.1-2c-2.3-1.3-4.2-3.2-5.5-5.7c-1.3-2.5-2.2-5.5-2.7-9c-0.5-3.5-0.8-7.4-0.8-11.7h13.8v3.7c0,3.5,0.2,6.5,0.6,9
	c0.4,2.5,1.6,3.7,3.6,3.7c1.3,0,2.2-0.6,2.8-1.8c0.6-1.2,1-2.8,1.2-4.7c0.2-1.9,0.3-3.9,0.3-6v-21c0-2-0.3-3.6-0.8-4.9
	c-0.5-1.3-1.5-2-2.9-2c-1.5,0-2.6,0.7-3.5,2c-0.9,1.4-1.4,3-1.6,4.9h-12.6V83.5h33.4v13.7h-21.5v20.2c0.8-1,1.9-1.9,3.1-2.6
	c1.3-0.8,3.1-1.2,5.4-1.2c3.2,0,5.9,0.8,8.1,2.4c2.2,1.5,3.9,3.8,5,6.7c1.2,2.9,1.7,6.4,1.7,10.4v21c0,3.3-0.3,6.5-0.8,9.5
	c-0.5,2.9-1.4,5.5-2.8,7.8s-3.2,4.1-5.5,5.4C345.2,178,342.2,178.6,338.6,178.6z M382.4,178.6c-4,0-7.3-0.9-10-2.6
	c-2.7-1.7-4.7-4.2-6.1-7.2c-1.3-3.1-2-6.6-2-10.5v-52.9c0-3.4,0.3-6.5,1-9.3c0.7-2.8,1.7-5.2,3.1-7.2c1.5-2,3.3-3.6,5.6-4.7
	c2.3-1.1,5.1-1.7,8.3-1.7c3.3,0,6.1,0.5,8.3,1.6c2.3,1,4.2,2.5,5.6,4.5c1.5,2,2.5,4.3,3.1,7c0.7,2.7,1,5.8,1,9.2v4.6h-13.8
	c0-3-0.1-5.7-0.3-7.9c-0.2-2.2-0.6-3.9-1.2-5.1c-0.6-1.2-1.5-1.9-2.8-1.9s-2.2,0.5-2.8,1.5c-0.6,1-1,2.4-1.2,4
	c-0.2,1.7-0.3,3.4-0.3,5.3v14.5c0.6-0.8,1.5-1.5,2.8-2.2c1.3-0.7,2.9-1,4.7-1c2.3,0,4.3,0.4,6.1,1.2c1.8,0.8,3.4,2,4.7,3.6
	c1.3,1.5,2.3,3.5,2.9,5.8c0.7,2.3,1,5,1,8v23c0,4-0.7,7.5-2,10.6c-1.4,3-3.4,5.4-6.1,7.2C389.6,177.7,386.3,178.6,382.4,178.6z
	 M382.4,166.6c1.5,0,2.6-0.7,3.2-2.2c0.7-1.5,1-3,1-4.6v-25.5c0-1.5-0.3-3-1-4.3c-0.6-1.3-1.7-2-3.2-2c-1.5,0-2.5,0.7-3.3,2
	c-0.7,1.3-1,2.8-1,4.4v25.3c0,1.6,0.3,3.1,0.9,4.6C379.7,165.8,380.8,166.6,382.4,166.6z"/>
<path d="M144.9,189c-3.9,0-7.3-0.9-10-2.6c-2.7-1.8-4.8-4.2-6.3-7.3c-1.4-3.1-2.1-6.5-2.1-10.4v-55.4c0-3.8,0.7-7.3,2.2-10.4
	c1.5-3.1,3.6-5.5,6.4-7.3s6.1-2.7,9.9-2.7c2.9,0,5.4,0.5,7.7,1.6c2.3,1.1,4.2,2.5,5.8,4.4c1.6,1.8,2.9,4,3.7,6.5
	c0.9,2.4,1.3,5.1,1.3,7.9v12.9h-12.9v-12.9c0-2-0.4-3.6-1.2-4.9c-0.8-1.3-2.2-2-4-2c-1.7,0-2.9,0.7-3.7,2c-0.8,1.4-1.2,3-1.2,4.9
	v55.4c0,1.9,0.4,3.5,1.2,4.9c0.9,1.4,2.1,2,3.6,2c1.9,0,3.3-0.7,4-2c0.8-1.3,1.2-3,1.2-4.9v-12.9h12.9v12.9c0,3.8-0.7,7.3-2.2,10.4
	c-1.5,3.1-3.6,5.5-6.4,7.3C152,188.1,148.7,189,144.9,189z M173,188V93.9h13.8c5.2,0,9.6,1.2,13.1,3.5c3.5,2.3,6.2,5.6,7.9,9.8
	s2.6,9.2,2.6,14.9c0,5.7-0.9,10.6-2.8,14.8c-1.8,4.1-4.5,7.4-8.1,9.7c-3.5,2.3-7.8,3.6-12.9,3.8V188H173z M186.8,136.3
	c2.4,0,4.4-0.5,5.8-1.4c1.4-1,2.4-2.5,3-4.6c0.6-2.1,1-4.8,1-8.1c0-3.3-0.3-6-1-8.1c-0.6-2.1-1.6-3.6-3.1-4.6
	c-1.4-1-3.3-1.5-5.7-1.5V136.3z M234.6,189c-3.8,0-7-0.6-9.5-1.9c-2.5-1.3-4.5-3.1-6-5.5c-1.5-2.4-2.5-5.3-3.1-8.6
	c-0.6-3.4-0.9-7.2-0.9-11.4l13.6-1.3c0,2,0.1,4,0.2,6c0.2,1.9,0.4,3.6,0.8,5.1c0.4,1.5,1,2.7,1.8,3.6c0.8,0.9,1.8,1.3,3.1,1.3
	c2,0,3.5-0.9,4.4-2.8c0.9-1.9,1.3-4.2,1.3-6.9c0-2.7-0.7-5.5-2.1-8.4s-3.1-5.7-5.1-8.3c-3.3-4.4-6.3-8.6-8.8-12.4
	c-2.5-3.8-4.4-7.5-5.8-11.2c-1.4-3.7-2-7.5-2-11.5c0-3.2,0.4-6.1,1.2-8.7c0.8-2.7,2-5,3.5-7c1.6-2,3.5-3.6,5.7-4.7
	c2.2-1.1,4.8-1.7,7.6-1.7c3.5,0,6.5,0.6,9,1.8c2.5,1.2,4.5,2.9,6,5.1c1.5,2.2,2.6,4.9,3.3,7.9c0.7,3,1.1,6.4,1.1,10.1l-13.6,1.3
	c0-1.6-0.1-3.2-0.3-4.7c-0.1-1.6-0.4-3.1-0.8-4.4s-0.9-2.4-1.7-3.2c-0.7-0.8-1.7-1.2-2.8-1.2c-1.8,0-3,0.8-3.7,2.3
	c-0.7,1.5-1,3.6-1,6.4c0,3.6,1,7,2.9,10.4s4.5,7.2,7.7,11.6c3.9,5.2,7,10.1,9.5,14.5c2.5,4.4,3.7,9.3,3.7,14.6
	c0,3.4-0.4,6.5-1.1,9.4c-0.7,2.9-1.9,5.4-3.5,7.5c-1.5,2.1-3.5,3.8-6,5C240.9,188.4,238,189,234.6,189z M276.9,189
	c-3.8,0-6.9-0.9-9.3-2.7c-2.4-1.8-4.2-4.2-5.3-7.3c-1.1-3.1-1.7-6.5-1.7-10.4v-55.4c0-3.8,0.7-7.2,2.2-10.3s3.6-5.5,6.4-7.3
	c2.8-1.8,6-2.8,9.8-2.8c2.9,0,5.4,0.5,7.7,1.6c2.3,1,4.2,2.5,5.8,4.4c1.6,1.9,2.8,4.1,3.6,6.5c0.9,2.4,1.3,5.1,1.3,7.9v14.5h-13.8
	v-14.5c0-1.9-0.3-3.5-1-4.9c-0.7-1.4-1.9-2-3.6-2c-1.7,0-2.9,0.7-3.6,2.2c-0.7,1.4-1,3-1,4.7v56.6c0,1.8,0.4,3.5,1.1,4.9
	c0.7,1.4,1.9,2,3.5,2c1.7,0,2.9-0.7,3.6-2c0.7-1.4,1-3,1-4.9v-15.7h-5.5v-12.9h19.3V188h-8.2l-1.7-5.1c-1.2,1.9-2.7,3.4-4.6,4.5
	C281.2,188.5,279.1,189,276.9,189z M307.2,159.6v-12.2h18.6v12.2H307.2z M352.3,189c-3.7,0-6.7-0.7-9.1-2c-2.3-1.3-4.2-3.2-5.5-5.7
	c-1.3-2.5-2.2-5.5-2.7-9c-0.5-3.5-0.8-7.4-0.8-11.7H348v3.7c0,3.5,0.2,6.5,0.6,9c0.4,2.5,1.6,3.7,3.6,3.7c1.3,0,2.2-0.6,2.8-1.8
	c0.6-1.2,1-2.8,1.2-4.7c0.2-1.9,0.3-3.9,0.3-6v-21c0-2-0.3-3.6-0.8-4.9c-0.5-1.3-1.5-2-2.9-2c-1.5,0-2.6,0.7-3.5,2
	c-0.9,1.4-1.4,3-1.6,4.9h-12.6V93.9h33.4v13.7H347v20.2c0.8-1,1.9-1.9,3.1-2.6c1.3-0.8,3.1-1.2,5.4-1.2c3.2,0,5.9,0.8,8.1,2.4
	c2.2,1.5,3.9,3.8,5,6.7c1.2,2.9,1.7,6.4,1.7,10.4v21c0,3.3-0.3,6.5-0.8,9.5c-0.5,2.9-1.4,5.5-2.8,7.8s-3.2,4.1-5.5,5.4
	C358.9,188.4,355.9,189,352.3,189z M396,189c-4,0-7.3-0.9-10-2.6c-2.7-1.7-4.7-4.2-6.1-7.2c-1.3-3.1-2-6.6-2-10.5v-52.9
	c0-3.4,0.3-6.5,1-9.3c0.7-2.8,1.7-5.2,3.1-7.2c1.5-2,3.3-3.6,5.6-4.7c2.3-1.1,5.1-1.7,8.3-1.7c3.3,0,6.1,0.5,8.3,1.6
	c2.3,1,4.2,2.5,5.6,4.5c1.5,2,2.5,4.3,3.1,7c0.7,2.7,1,5.8,1,9.2v4.6h-13.8c0-3-0.1-5.7-0.3-7.9c-0.2-2.2-0.6-3.9-1.2-5.1
	c-0.6-1.2-1.5-1.9-2.8-1.9s-2.2,0.5-2.8,1.5c-0.6,1-1,2.4-1.2,4c-0.2,1.7-0.3,3.4-0.3,5.3v14.5c0.6-0.8,1.5-1.5,2.8-2.2
	c1.3-0.7,2.9-1,4.7-1c2.3,0,4.3,0.4,6.1,1.2c1.8,0.8,3.4,2,4.7,3.6c1.3,1.5,2.3,3.5,2.9,5.8c0.7,2.3,1,5,1,8v23c0,4-0.7,7.5-2,10.6
	c-1.4,3-3.4,5.4-6.1,7.2C403.2,188.1,399.9,189,396,189z M396,177c1.5,0,2.6-0.7,3.2-2.2c0.7-1.5,1-3,1-4.6v-25.5c0-1.5-0.3-3-1-4.3
	c-0.6-1.3-1.7-2-3.2-2c-1.5,0-2.5,0.7-3.3,2c-0.7,1.3-1,2.8-1,4.4v25.3c0,1.6,0.3,3.1,0.9,4.6C393.3,176.3,394.4,177,396,177z"/>
</svg>
